<?xml version="1.0" encoding="utf-8" standalone="no"?>
<!DOCTYPE svg PUBLIC "-//W3C//DTD SVG 1.1//EN"
  "http://www.w3.org/Graphics/SVG/1.1/DTD/svg11.dtd">
<svg xmlns:xlink="http://www.w3.org/1999/xlink" width="460.8pt" height="345.6pt" viewBox="0 0 460.8 345.6" xmlns="http://www.w3.org/2000/svg" version="1.1">
 <metadata>
  <rdf:RDF xmlns:dc="http://purl.org/dc/elements/1.1/" xmlns:cc="http://creativecommons.org/ns#" xmlns:rdf="http://www.w3.org/1999/02/22-rdf-syntax-ns#">
   <cc:Work>
    <dc:type rdf:resource="http://purl.org/dc/dcmitype/StillImage"/>
    <dc:date>2022-07-10T12:42:55.812319</dc:date>
    <dc:format>image/svg+xml</dc:format>
    <dc:creator>
     <cc:Agent>
      <dc:title>Matplotlib v3.5.2, https://matplotlib.org/</dc:title>
     </cc:Agent>
    </dc:creator>
   </cc:Work>
  </rdf:RDF>
 </metadata>
 <defs>
  <style type="text/css">*{stroke-linejoin: round; stroke-linecap: butt}</style>
 </defs>
 <g id="figure_1">
  <g id="patch_1">
   <path d="M 0 345.6 
L 460.8 345.6 
L 460.8 0 
L 0 0 
z
" style="fill: #ffffff"/>
  </g>
  <g id="axes_1">
   <g id="patch_2">
    <path d="M 57.6 307.584 
L 414.72 307.584 
L 414.72 41.472 
L 57.6 41.472 
z
" style="fill: #ffffff"/>
   </g>
   <g id="matplotlib.axis_1">
    <g id="xtick_1">
     <g id="line2d_1">
      <defs>
       <path id="ma2a823ce61" d="M 0 0 
L 0 3.5 
" style="stroke: #000000; stroke-width: 0.8"/>
      </defs>
      <g>
       <use xlink:href="#ma2a823ce61" x="73.832727" y="307.584" style="stroke: #000000; stroke-width: 0.8"/>
      </g>
     </g>
     <g id="text_1">
      <!-- 0 -->
      <g transform="translate(70.651477 322.182437)scale(0.1 -0.1)">
       <defs>
        <path id="DejaVuSans-30" d="M 2034 4250 
Q 1547 4250 1301 3770 
Q 1056 3291 1056 2328 
Q 1056 1369 1301 889 
Q 1547 409 2034 409 
Q 2525 409 2770 889 
Q 3016 1369 3016 2328 
Q 3016 3291 2770 3770 
Q 2525 4250 2034 4250 
z
M 2034 4750 
Q 2819 4750 3233 4129 
Q 3647 3509 3647 2328 
Q 3647 1150 3233 529 
Q 2819 -91 2034 -91 
Q 1250 -91 836 529 
Q 422 1150 422 2328 
Q 422 3509 836 4129 
Q 1250 4750 2034 4750 
z
" transform="scale(0.015625)"/>
       </defs>
       <use xlink:href="#DejaVuSans-30"/>
      </g>
     </g>
    </g>
    <g id="xtick_2">
     <g id="line2d_2">
      <g>
       <use xlink:href="#ma2a823ce61" x="150.042714" y="307.584" style="stroke: #000000; stroke-width: 0.8"/>
      </g>
     </g>
     <g id="text_2">
      <!-- 50 -->
      <g transform="translate(143.680214 322.182437)scale(0.1 -0.1)">
       <defs>
        <path id="DejaVuSans-35" d="M 691 4666 
L 3169 4666 
L 3169 4134 
L 1269 4134 
L 1269 2991 
Q 1406 3038 1543 3061 
Q 1681 3084 1819 3084 
Q 2600 3084 3056 2656 
Q 3513 2228 3513 1497 
Q 3513 744 3044 326 
Q 2575 -91 1722 -91 
Q 1428 -91 1123 -41 
Q 819 9 494 109 
L 494 744 
Q 775 591 1075 516 
Q 1375 441 1709 441 
Q 2250 441 2565 725 
Q 2881 1009 2881 1497 
Q 2881 1984 2565 2268 
Q 2250 2553 1709 2553 
Q 1456 2553 1204 2497 
Q 953 2441 691 2322 
L 691 4666 
z
" transform="scale(0.015625)"/>
       </defs>
       <use xlink:href="#DejaVuSans-35"/>
       <use xlink:href="#DejaVuSans-30" x="63.623047"/>
      </g>
     </g>
    </g>
    <g id="xtick_3">
     <g id="line2d_3">
      <g>
       <use xlink:href="#ma2a823ce61" x="226.252702" y="307.584" style="stroke: #000000; stroke-width: 0.8"/>
      </g>
     </g>
     <g id="text_3">
      <!-- 100 -->
      <g transform="translate(216.708952 322.182437)scale(0.1 -0.1)">
       <defs>
        <path id="DejaVuSans-31" d="M 794 531 
L 1825 531 
L 1825 4091 
L 703 3866 
L 703 4441 
L 1819 4666 
L 2450 4666 
L 2450 531 
L 3481 531 
L 3481 0 
L 794 0 
L 794 531 
z
" transform="scale(0.015625)"/>
       </defs>
       <use xlink:href="#DejaVuSans-31"/>
       <use xlink:href="#DejaVuSans-30" x="63.623047"/>
       <use xlink:href="#DejaVuSans-30" x="127.246094"/>
      </g>
     </g>
    </g>
    <g id="xtick_4">
     <g id="line2d_4">
      <g>
       <use xlink:href="#ma2a823ce61" x="302.462689" y="307.584" style="stroke: #000000; stroke-width: 0.8"/>
      </g>
     </g>
     <g id="text_4">
      <!-- 150 -->
      <g transform="translate(292.918939 322.182437)scale(0.1 -0.1)">
       <use xlink:href="#DejaVuSans-31"/>
       <use xlink:href="#DejaVuSans-35" x="63.623047"/>
       <use xlink:href="#DejaVuSans-30" x="127.246094"/>
      </g>
     </g>
    </g>
    <g id="xtick_5">
     <g id="line2d_5">
      <g>
       <use xlink:href="#ma2a823ce61" x="378.672676" y="307.584" style="stroke: #000000; stroke-width: 0.8"/>
      </g>
     </g>
     <g id="text_5">
      <!-- 200 -->
      <g transform="translate(369.128926 322.182437)scale(0.1 -0.1)">
       <defs>
        <path id="DejaVuSans-32" d="M 1228 531 
L 3431 531 
L 3431 0 
L 469 0 
L 469 531 
Q 828 903 1448 1529 
Q 2069 2156 2228 2338 
Q 2531 2678 2651 2914 
Q 2772 3150 2772 3378 
Q 2772 3750 2511 3984 
Q 2250 4219 1831 4219 
Q 1534 4219 1204 4116 
Q 875 4013 500 3803 
L 500 4441 
Q 881 4594 1212 4672 
Q 1544 4750 1819 4750 
Q 2544 4750 2975 4387 
Q 3406 4025 3406 3419 
Q 3406 3131 3298 2873 
Q 3191 2616 2906 2266 
Q 2828 2175 2409 1742 
Q 1991 1309 1228 531 
z
" transform="scale(0.015625)"/>
       </defs>
       <use xlink:href="#DejaVuSans-32"/>
       <use xlink:href="#DejaVuSans-30" x="63.623047"/>
       <use xlink:href="#DejaVuSans-30" x="127.246094"/>
      </g>
     </g>
    </g>
    <g id="text_6">
     <!-- ID(raw) -->
     <g transform="translate(217.724844 335.860562)scale(0.1 -0.1)">
      <defs>
       <path id="DejaVuSans-49" d="M 628 4666 
L 1259 4666 
L 1259 0 
L 628 0 
L 628 4666 
z
" transform="scale(0.015625)"/>
       <path id="DejaVuSans-44" d="M 1259 4147 
L 1259 519 
L 2022 519 
Q 2988 519 3436 956 
Q 3884 1394 3884 2338 
Q 3884 3275 3436 3711 
Q 2988 4147 2022 4147 
L 1259 4147 
z
M 628 4666 
L 1925 4666 
Q 3281 4666 3915 4102 
Q 4550 3538 4550 2338 
Q 4550 1131 3912 565 
Q 3275 0 1925 0 
L 628 0 
L 628 4666 
z
" transform="scale(0.015625)"/>
       <path id="DejaVuSans-28" d="M 1984 4856 
Q 1566 4138 1362 3434 
Q 1159 2731 1159 2009 
Q 1159 1288 1364 580 
Q 1569 -128 1984 -844 
L 1484 -844 
Q 1016 -109 783 600 
Q 550 1309 550 2009 
Q 550 2706 781 3412 
Q 1013 4119 1484 4856 
L 1984 4856 
z
" transform="scale(0.015625)"/>
       <path id="DejaVuSans-72" d="M 2631 2963 
Q 2534 3019 2420 3045 
Q 2306 3072 2169 3072 
Q 1681 3072 1420 2755 
Q 1159 2438 1159 1844 
L 1159 0 
L 581 0 
L 581 3500 
L 1159 3500 
L 1159 2956 
Q 1341 3275 1631 3429 
Q 1922 3584 2338 3584 
Q 2397 3584 2469 3576 
Q 2541 3569 2628 3553 
L 2631 2963 
z
" transform="scale(0.015625)"/>
       <path id="DejaVuSans-61" d="M 2194 1759 
Q 1497 1759 1228 1600 
Q 959 1441 959 1056 
Q 959 750 1161 570 
Q 1363 391 1709 391 
Q 2188 391 2477 730 
Q 2766 1069 2766 1631 
L 2766 1759 
L 2194 1759 
z
M 3341 1997 
L 3341 0 
L 2766 0 
L 2766 531 
Q 2569 213 2275 61 
Q 1981 -91 1556 -91 
Q 1019 -91 701 211 
Q 384 513 384 1019 
Q 384 1609 779 1909 
Q 1175 2209 1959 2209 
L 2766 2209 
L 2766 2266 
Q 2766 2663 2505 2880 
Q 2244 3097 1772 3097 
Q 1472 3097 1187 3025 
Q 903 2953 641 2809 
L 641 3341 
Q 956 3463 1253 3523 
Q 1550 3584 1831 3584 
Q 2591 3584 2966 3190 
Q 3341 2797 3341 1997 
z
" transform="scale(0.015625)"/>
       <path id="DejaVuSans-77" d="M 269 3500 
L 844 3500 
L 1563 769 
L 2278 3500 
L 2956 3500 
L 3675 769 
L 4391 3500 
L 4966 3500 
L 4050 0 
L 3372 0 
L 2619 2869 
L 1863 0 
L 1184 0 
L 269 3500 
z
" transform="scale(0.015625)"/>
       <path id="DejaVuSans-29" d="M 513 4856 
L 1013 4856 
Q 1481 4119 1714 3412 
Q 1947 2706 1947 2009 
Q 1947 1309 1714 600 
Q 1481 -109 1013 -844 
L 513 -844 
Q 928 -128 1133 580 
Q 1338 1288 1338 2009 
Q 1338 2731 1133 3434 
Q 928 4138 513 4856 
z
" transform="scale(0.015625)"/>
      </defs>
      <use xlink:href="#DejaVuSans-49"/>
      <use xlink:href="#DejaVuSans-44" x="29.492188"/>
      <use xlink:href="#DejaVuSans-28" x="106.494141"/>
      <use xlink:href="#DejaVuSans-72" x="145.507812"/>
      <use xlink:href="#DejaVuSans-61" x="186.621094"/>
      <use xlink:href="#DejaVuSans-77" x="247.900391"/>
      <use xlink:href="#DejaVuSans-29" x="329.6875"/>
     </g>
    </g>
   </g>
   <g id="matplotlib.axis_2">
    <g id="ytick_1">
     <g id="line2d_6">
      <defs>
       <path id="m735701574a" d="M 0 0 
L -3.5 0 
" style="stroke: #000000; stroke-width: 0.8"/>
      </defs>
      <g>
       <use xlink:href="#m735701574a" x="57.6" y="290.828734" style="stroke: #000000; stroke-width: 0.8"/>
      </g>
     </g>
     <g id="text_7">
      <!-- −1240 -->
      <g transform="translate(16.770313 294.627953)scale(0.1 -0.1)">
       <defs>
        <path id="DejaVuSans-2212" d="M 678 2272 
L 4684 2272 
L 4684 1741 
L 678 1741 
L 678 2272 
z
" transform="scale(0.015625)"/>
        <path id="DejaVuSans-34" d="M 2419 4116 
L 825 1625 
L 2419 1625 
L 2419 4116 
z
M 2253 4666 
L 3047 4666 
L 3047 1625 
L 3713 1625 
L 3713 1100 
L 3047 1100 
L 3047 0 
L 2419 0 
L 2419 1100 
L 313 1100 
L 313 1709 
L 2253 4666 
z
" transform="scale(0.015625)"/>
       </defs>
       <use xlink:href="#DejaVuSans-2212"/>
       <use xlink:href="#DejaVuSans-31" x="83.789062"/>
       <use xlink:href="#DejaVuSans-32" x="147.412109"/>
       <use xlink:href="#DejaVuSans-34" x="211.035156"/>
       <use xlink:href="#DejaVuSans-30" x="274.658203"/>
      </g>
     </g>
    </g>
    <g id="ytick_2">
     <g id="line2d_7">
      <g>
       <use xlink:href="#m735701574a" x="57.6" y="259.065858" style="stroke: #000000; stroke-width: 0.8"/>
      </g>
     </g>
     <g id="text_8">
      <!-- −1238 -->
      <g transform="translate(16.770313 262.865077)scale(0.1 -0.1)">
       <defs>
        <path id="DejaVuSans-33" d="M 2597 2516 
Q 3050 2419 3304 2112 
Q 3559 1806 3559 1356 
Q 3559 666 3084 287 
Q 2609 -91 1734 -91 
Q 1441 -91 1130 -33 
Q 819 25 488 141 
L 488 750 
Q 750 597 1062 519 
Q 1375 441 1716 441 
Q 2309 441 2620 675 
Q 2931 909 2931 1356 
Q 2931 1769 2642 2001 
Q 2353 2234 1838 2234 
L 1294 2234 
L 1294 2753 
L 1863 2753 
Q 2328 2753 2575 2939 
Q 2822 3125 2822 3475 
Q 2822 3834 2567 4026 
Q 2313 4219 1838 4219 
Q 1578 4219 1281 4162 
Q 984 4106 628 3988 
L 628 4550 
Q 988 4650 1302 4700 
Q 1616 4750 1894 4750 
Q 2613 4750 3031 4423 
Q 3450 4097 3450 3541 
Q 3450 3153 3228 2886 
Q 3006 2619 2597 2516 
z
" transform="scale(0.015625)"/>
        <path id="DejaVuSans-38" d="M 2034 2216 
Q 1584 2216 1326 1975 
Q 1069 1734 1069 1313 
Q 1069 891 1326 650 
Q 1584 409 2034 409 
Q 2484 409 2743 651 
Q 3003 894 3003 1313 
Q 3003 1734 2745 1975 
Q 2488 2216 2034 2216 
z
M 1403 2484 
Q 997 2584 770 2862 
Q 544 3141 544 3541 
Q 544 4100 942 4425 
Q 1341 4750 2034 4750 
Q 2731 4750 3128 4425 
Q 3525 4100 3525 3541 
Q 3525 3141 3298 2862 
Q 3072 2584 2669 2484 
Q 3125 2378 3379 2068 
Q 3634 1759 3634 1313 
Q 3634 634 3220 271 
Q 2806 -91 2034 -91 
Q 1263 -91 848 271 
Q 434 634 434 1313 
Q 434 1759 690 2068 
Q 947 2378 1403 2484 
z
M 1172 3481 
Q 1172 3119 1398 2916 
Q 1625 2713 2034 2713 
Q 2441 2713 2670 2916 
Q 2900 3119 2900 3481 
Q 2900 3844 2670 4047 
Q 2441 4250 2034 4250 
Q 1625 4250 1398 4047 
Q 1172 3844 1172 3481 
z
" transform="scale(0.015625)"/>
       </defs>
       <use xlink:href="#DejaVuSans-2212"/>
       <use xlink:href="#DejaVuSans-31" x="83.789062"/>
       <use xlink:href="#DejaVuSans-32" x="147.412109"/>
       <use xlink:href="#DejaVuSans-33" x="211.035156"/>
       <use xlink:href="#DejaVuSans-38" x="274.658203"/>
      </g>
     </g>
    </g>
    <g id="ytick_3">
     <g id="line2d_8">
      <g>
       <use xlink:href="#m735701574a" x="57.6" y="227.302982" style="stroke: #000000; stroke-width: 0.8"/>
      </g>
     </g>
     <g id="text_9">
      <!-- −1236 -->
      <g transform="translate(16.770313 231.1022)scale(0.1 -0.1)">
       <defs>
        <path id="DejaVuSans-36" d="M 2113 2584 
Q 1688 2584 1439 2293 
Q 1191 2003 1191 1497 
Q 1191 994 1439 701 
Q 1688 409 2113 409 
Q 2538 409 2786 701 
Q 3034 994 3034 1497 
Q 3034 2003 2786 2293 
Q 2538 2584 2113 2584 
z
M 3366 4563 
L 3366 3988 
Q 3128 4100 2886 4159 
Q 2644 4219 2406 4219 
Q 1781 4219 1451 3797 
Q 1122 3375 1075 2522 
Q 1259 2794 1537 2939 
Q 1816 3084 2150 3084 
Q 2853 3084 3261 2657 
Q 3669 2231 3669 1497 
Q 3669 778 3244 343 
Q 2819 -91 2113 -91 
Q 1303 -91 875 529 
Q 447 1150 447 2328 
Q 447 3434 972 4092 
Q 1497 4750 2381 4750 
Q 2619 4750 2861 4703 
Q 3103 4656 3366 4563 
z
" transform="scale(0.015625)"/>
       </defs>
       <use xlink:href="#DejaVuSans-2212"/>
       <use xlink:href="#DejaVuSans-31" x="83.789062"/>
       <use xlink:href="#DejaVuSans-32" x="147.412109"/>
       <use xlink:href="#DejaVuSans-33" x="211.035156"/>
       <use xlink:href="#DejaVuSans-36" x="274.658203"/>
      </g>
     </g>
    </g>
    <g id="ytick_4">
     <g id="line2d_9">
      <g>
       <use xlink:href="#m735701574a" x="57.6" y="195.540105" style="stroke: #000000; stroke-width: 0.8"/>
      </g>
     </g>
     <g id="text_10">
      <!-- −1234 -->
      <g transform="translate(16.770313 199.339324)scale(0.1 -0.1)">
       <use xlink:href="#DejaVuSans-2212"/>
       <use xlink:href="#DejaVuSans-31" x="83.789062"/>
       <use xlink:href="#DejaVuSans-32" x="147.412109"/>
       <use xlink:href="#DejaVuSans-33" x="211.035156"/>
       <use xlink:href="#DejaVuSans-34" x="274.658203"/>
      </g>
     </g>
    </g>
    <g id="ytick_5">
     <g id="line2d_10">
      <g>
       <use xlink:href="#m735701574a" x="57.6" y="163.777229" style="stroke: #000000; stroke-width: 0.8"/>
      </g>
     </g>
     <g id="text_11">
      <!-- −1232 -->
      <g transform="translate(16.770313 167.576447)scale(0.1 -0.1)">
       <use xlink:href="#DejaVuSans-2212"/>
       <use xlink:href="#DejaVuSans-31" x="83.789062"/>
       <use xlink:href="#DejaVuSans-32" x="147.412109"/>
       <use xlink:href="#DejaVuSans-33" x="211.035156"/>
       <use xlink:href="#DejaVuSans-32" x="274.658203"/>
      </g>
     </g>
    </g>
    <g id="ytick_6">
     <g id="line2d_11">
      <g>
       <use xlink:href="#m735701574a" x="57.6" y="132.014352" style="stroke: #000000; stroke-width: 0.8"/>
      </g>
     </g>
     <g id="text_12">
      <!-- −1230 -->
      <g transform="translate(16.770313 135.813571)scale(0.1 -0.1)">
       <use xlink:href="#DejaVuSans-2212"/>
       <use xlink:href="#DejaVuSans-31" x="83.789062"/>
       <use xlink:href="#DejaVuSans-32" x="147.412109"/>
       <use xlink:href="#DejaVuSans-33" x="211.035156"/>
       <use xlink:href="#DejaVuSans-30" x="274.658203"/>
      </g>
     </g>
    </g>
    <g id="ytick_7">
     <g id="line2d_12">
      <g>
       <use xlink:href="#m735701574a" x="57.6" y="100.251476" style="stroke: #000000; stroke-width: 0.8"/>
      </g>
     </g>
     <g id="text_13">
      <!-- −1228 -->
      <g transform="translate(16.770313 104.050695)scale(0.1 -0.1)">
       <use xlink:href="#DejaVuSans-2212"/>
       <use xlink:href="#DejaVuSans-31" x="83.789062"/>
       <use xlink:href="#DejaVuSans-32" x="147.412109"/>
       <use xlink:href="#DejaVuSans-32" x="211.035156"/>
       <use xlink:href="#DejaVuSans-38" x="274.658203"/>
      </g>
     </g>
    </g>
    <g id="ytick_8">
     <g id="line2d_13">
      <g>
       <use xlink:href="#m735701574a" x="57.6" y="68.488599" style="stroke: #000000; stroke-width: 0.8"/>
      </g>
     </g>
     <g id="text_14">
      <!-- −1226 -->
      <g transform="translate(16.770313 72.287818)scale(0.1 -0.1)">
       <use xlink:href="#DejaVuSans-2212"/>
       <use xlink:href="#DejaVuSans-31" x="83.789062"/>
       <use xlink:href="#DejaVuSans-32" x="147.412109"/>
       <use xlink:href="#DejaVuSans-32" x="211.035156"/>
       <use xlink:href="#DejaVuSans-36" x="274.658203"/>
      </g>
     </g>
    </g>
    <g id="text_15">
     <!-- enthalpy(raw) -->
     <g transform="translate(10.690625 209.599094)rotate(-90)scale(0.1 -0.1)">
      <defs>
       <path id="DejaVuSans-65" d="M 3597 1894 
L 3597 1613 
L 953 1613 
Q 991 1019 1311 708 
Q 1631 397 2203 397 
Q 2534 397 2845 478 
Q 3156 559 3463 722 
L 3463 178 
Q 3153 47 2828 -22 
Q 2503 -91 2169 -91 
Q 1331 -91 842 396 
Q 353 884 353 1716 
Q 353 2575 817 3079 
Q 1281 3584 2069 3584 
Q 2775 3584 3186 3129 
Q 3597 2675 3597 1894 
z
M 3022 2063 
Q 3016 2534 2758 2815 
Q 2500 3097 2075 3097 
Q 1594 3097 1305 2825 
Q 1016 2553 972 2059 
L 3022 2063 
z
" transform="scale(0.015625)"/>
       <path id="DejaVuSans-6e" d="M 3513 2113 
L 3513 0 
L 2938 0 
L 2938 2094 
Q 2938 2591 2744 2837 
Q 2550 3084 2163 3084 
Q 1697 3084 1428 2787 
Q 1159 2491 1159 1978 
L 1159 0 
L 581 0 
L 581 3500 
L 1159 3500 
L 1159 2956 
Q 1366 3272 1645 3428 
Q 1925 3584 2291 3584 
Q 2894 3584 3203 3211 
Q 3513 2838 3513 2113 
z
" transform="scale(0.015625)"/>
       <path id="DejaVuSans-74" d="M 1172 4494 
L 1172 3500 
L 2356 3500 
L 2356 3053 
L 1172 3053 
L 1172 1153 
Q 1172 725 1289 603 
Q 1406 481 1766 481 
L 2356 481 
L 2356 0 
L 1766 0 
Q 1100 0 847 248 
Q 594 497 594 1153 
L 594 3053 
L 172 3053 
L 172 3500 
L 594 3500 
L 594 4494 
L 1172 4494 
z
" transform="scale(0.015625)"/>
       <path id="DejaVuSans-68" d="M 3513 2113 
L 3513 0 
L 2938 0 
L 2938 2094 
Q 2938 2591 2744 2837 
Q 2550 3084 2163 3084 
Q 1697 3084 1428 2787 
Q 1159 2491 1159 1978 
L 1159 0 
L 581 0 
L 581 4863 
L 1159 4863 
L 1159 2956 
Q 1366 3272 1645 3428 
Q 1925 3584 2291 3584 
Q 2894 3584 3203 3211 
Q 3513 2838 3513 2113 
z
" transform="scale(0.015625)"/>
       <path id="DejaVuSans-6c" d="M 603 4863 
L 1178 4863 
L 1178 0 
L 603 0 
L 603 4863 
z
" transform="scale(0.015625)"/>
       <path id="DejaVuSans-70" d="M 1159 525 
L 1159 -1331 
L 581 -1331 
L 581 3500 
L 1159 3500 
L 1159 2969 
Q 1341 3281 1617 3432 
Q 1894 3584 2278 3584 
Q 2916 3584 3314 3078 
Q 3713 2572 3713 1747 
Q 3713 922 3314 415 
Q 2916 -91 2278 -91 
Q 1894 -91 1617 61 
Q 1341 213 1159 525 
z
M 3116 1747 
Q 3116 2381 2855 2742 
Q 2594 3103 2138 3103 
Q 1681 3103 1420 2742 
Q 1159 2381 1159 1747 
Q 1159 1113 1420 752 
Q 1681 391 2138 391 
Q 2594 391 2855 752 
Q 3116 1113 3116 1747 
z
" transform="scale(0.015625)"/>
       <path id="DejaVuSans-79" d="M 2059 -325 
Q 1816 -950 1584 -1140 
Q 1353 -1331 966 -1331 
L 506 -1331 
L 506 -850 
L 844 -850 
Q 1081 -850 1212 -737 
Q 1344 -625 1503 -206 
L 1606 56 
L 191 3500 
L 800 3500 
L 1894 763 
L 2988 3500 
L 3597 3500 
L 2059 -325 
z
" transform="scale(0.015625)"/>
      </defs>
      <use xlink:href="#DejaVuSans-65"/>
      <use xlink:href="#DejaVuSans-6e" x="61.523438"/>
      <use xlink:href="#DejaVuSans-74" x="124.902344"/>
      <use xlink:href="#DejaVuSans-68" x="164.111328"/>
      <use xlink:href="#DejaVuSans-61" x="227.490234"/>
      <use xlink:href="#DejaVuSans-6c" x="288.769531"/>
      <use xlink:href="#DejaVuSans-70" x="316.552734"/>
      <use xlink:href="#DejaVuSans-79" x="380.029297"/>
      <use xlink:href="#DejaVuSans-28" x="439.208984"/>
      <use xlink:href="#DejaVuSans-72" x="478.222656"/>
      <use xlink:href="#DejaVuSans-61" x="519.335938"/>
      <use xlink:href="#DejaVuSans-77" x="580.615234"/>
      <use xlink:href="#DejaVuSans-29" x="662.402344"/>
     </g>
    </g>
   </g>
   <g id="line2d_14">
    <defs>
     <path id="mceed168bec" d="M 0 3 
C 0.795609 3 1.55874 2.683901 2.12132 2.12132 
C 2.683901 1.55874 3 0.795609 3 0 
C 3 -0.795609 2.683901 -1.55874 2.12132 -2.12132 
C 1.55874 -2.683901 0.795609 -3 0 -3 
C -0.795609 -3 -1.55874 -2.683901 -2.12132 -2.12132 
C -2.683901 -1.55874 -3 -0.795609 -3 0 
C -3 0.795609 -2.683901 1.55874 -2.12132 2.12132 
C -1.55874 2.683901 -0.795609 3 0 3 
z
" style="stroke: #008000"/>
    </defs>
    <g clip-path="url(#pb8c053ea4b)">
     <use xlink:href="#mceed168bec" x="73.832727" y="275.681227" style="fill: #008000; stroke: #008000"/>
     <use xlink:href="#mceed168bec" x="75.356927" y="252.417099" style="fill: #008000; stroke: #008000"/>
     <use xlink:href="#mceed168bec" x="78.405327" y="53.568" style="fill: #008000; stroke: #008000"/>
     <use xlink:href="#mceed168bec" x="79.929526" y="252.368618" style="fill: #008000; stroke: #008000"/>
     <use xlink:href="#mceed168bec" x="84.502125" y="143.829302" style="fill: #008000; stroke: #008000"/>
     <use xlink:href="#mceed168bec" x="87.550525" y="167.685823" style="fill: #008000; stroke: #008000"/>
     <use xlink:href="#mceed168bec" x="89.074725" y="202.623609" style="fill: #008000; stroke: #008000"/>
     <use xlink:href="#mceed168bec" x="92.123124" y="202.360754" style="fill: #008000; stroke: #008000"/>
     <use xlink:href="#mceed168bec" x="98.219923" y="291.719881" style="fill: #008000; stroke: #008000"/>
     <use xlink:href="#mceed168bec" x="99.744123" y="193.883461" style="fill: #008000; stroke: #008000"/>
     <use xlink:href="#mceed168bec" x="101.268323" y="295.488" style="fill: #008000; stroke: #008000"/>
     <use xlink:href="#mceed168bec" x="102.792522" y="197.831382" style="fill: #008000; stroke: #008000"/>
     <use xlink:href="#mceed168bec" x="104.316722" y="273.89641" style="fill: #008000; stroke: #008000"/>
     <use xlink:href="#mceed168bec" x="105.840922" y="228.136856" style="fill: #008000; stroke: #008000"/>
     <use xlink:href="#mceed168bec" x="111.937721" y="165.739782" style="fill: #008000; stroke: #008000"/>
     <use xlink:href="#mceed168bec" x="118.03452" y="231.11705" style="fill: #008000; stroke: #008000"/>
     <use xlink:href="#mceed168bec" x="119.55872" y="228.857942" style="fill: #008000; stroke: #008000"/>
     <use xlink:href="#mceed168bec" x="122.607119" y="194.216365" style="fill: #008000; stroke: #008000"/>
     <use xlink:href="#mceed168bec" x="136.324917" y="248.900052" style="fill: #008000; stroke: #008000"/>
     <use xlink:href="#mceed168bec" x="139.373316" y="215.459223" style="fill: #008000; stroke: #008000"/>
     <use xlink:href="#mceed168bec" x="143.945915" y="202.914787" style="fill: #008000; stroke: #008000"/>
     <use xlink:href="#mceed168bec" x="145.470115" y="243.977055" style="fill: #008000; stroke: #008000"/>
     <use xlink:href="#mceed168bec" x="148.518515" y="294.223704" style="fill: #008000; stroke: #008000"/>
     <use xlink:href="#mceed168bec" x="150.042714" y="171.344648" style="fill: #008000; stroke: #008000"/>
     <use xlink:href="#mceed168bec" x="151.566914" y="256.384372" style="fill: #008000; stroke: #008000"/>
     <use xlink:href="#mceed168bec" x="154.615314" y="200.895007" style="fill: #008000; stroke: #008000"/>
     <use xlink:href="#mceed168bec" x="159.187913" y="294.180216" style="fill: #008000; stroke: #008000"/>
     <use xlink:href="#mceed168bec" x="160.712113" y="294.179726" style="fill: #008000; stroke: #008000"/>
     <use xlink:href="#mceed168bec" x="162.236312" y="295.142602" style="fill: #008000; stroke: #008000"/>
     <use xlink:href="#mceed168bec" x="166.808912" y="294.281537" style="fill: #008000; stroke: #008000"/>
     <use xlink:href="#mceed168bec" x="168.333111" y="294.221096" style="fill: #008000; stroke: #008000"/>
     <use xlink:href="#mceed168bec" x="169.857311" y="295.090118" style="fill: #008000; stroke: #008000"/>
     <use xlink:href="#mceed168bec" x="171.381511" y="262.750889" style="fill: #008000; stroke: #008000"/>
     <use xlink:href="#mceed168bec" x="172.905711" y="138.978396" style="fill: #008000; stroke: #008000"/>
     <use xlink:href="#mceed168bec" x="174.42991" y="200.566966" style="fill: #008000; stroke: #008000"/>
     <use xlink:href="#mceed168bec" x="177.47831" y="295.091238" style="fill: #008000; stroke: #008000"/>
     <use xlink:href="#mceed168bec" x="179.00251" y="200.155052" style="fill: #008000; stroke: #008000"/>
     <use xlink:href="#mceed168bec" x="185.099309" y="167.212827" style="fill: #008000; stroke: #008000"/>
     <use xlink:href="#mceed168bec" x="186.623508" y="171.291212" style="fill: #008000; stroke: #008000"/>
     <use xlink:href="#mceed168bec" x="188.147708" y="226.075671" style="fill: #008000; stroke: #008000"/>
     <use xlink:href="#mceed168bec" x="189.671908" y="228.619852" style="fill: #008000; stroke: #008000"/>
     <use xlink:href="#mceed168bec" x="192.720307" y="294.229506" style="fill: #008000; stroke: #008000"/>
     <use xlink:href="#mceed168bec" x="194.244507" y="295.08632" style="fill: #008000; stroke: #008000"/>
     <use xlink:href="#mceed168bec" x="197.292907" y="294.806514" style="fill: #008000; stroke: #008000"/>
     <use xlink:href="#mceed168bec" x="204.913905" y="184.117949" style="fill: #008000; stroke: #008000"/>
     <use xlink:href="#mceed168bec" x="212.534904" y="294.160657" style="fill: #008000; stroke: #008000"/>
     <use xlink:href="#mceed168bec" x="215.583303" y="295.068724" style="fill: #008000; stroke: #008000"/>
     <use xlink:href="#mceed168bec" x="218.631703" y="295.365961" style="fill: #008000; stroke: #008000"/>
     <use xlink:href="#mceed168bec" x="226.252702" y="294.979798" style="fill: #008000; stroke: #008000"/>
     <use xlink:href="#mceed168bec" x="238.4463" y="295.118777" style="fill: #008000; stroke: #008000"/>
     <use xlink:href="#mceed168bec" x="239.970499" y="294.994981" style="fill: #008000; stroke: #008000"/>
     <use xlink:href="#mceed168bec" x="243.018899" y="215.335965" style="fill: #008000; stroke: #008000"/>
     <use xlink:href="#mceed168bec" x="246.067298" y="176.200246" style="fill: #008000; stroke: #008000"/>
     <use xlink:href="#mceed168bec" x="247.591498" y="180.845379" style="fill: #008000; stroke: #008000"/>
     <use xlink:href="#mceed168bec" x="256.736697" y="207.511527" style="fill: #008000; stroke: #008000"/>
     <use xlink:href="#mceed168bec" x="259.785096" y="291.610734" style="fill: #008000; stroke: #008000"/>
     <use xlink:href="#mceed168bec" x="262.833496" y="269.798258" style="fill: #008000; stroke: #008000"/>
     <use xlink:href="#mceed168bec" x="264.357695" y="295.043519" style="fill: #008000; stroke: #008000"/>
     <use xlink:href="#mceed168bec" x="276.551293" y="228.291518" style="fill: #008000; stroke: #008000"/>
     <use xlink:href="#mceed168bec" x="278.075493" y="213.462403" style="fill: #008000; stroke: #008000"/>
     <use xlink:href="#mceed168bec" x="294.84169" y="294.23432" style="fill: #008000; stroke: #008000"/>
     <use xlink:href="#mceed168bec" x="302.462689" y="294.768385" style="fill: #008000; stroke: #008000"/>
     <use xlink:href="#mceed168bec" x="307.035288" y="252.087412" style="fill: #008000; stroke: #008000"/>
     <use xlink:href="#mceed168bec" x="314.656287" y="198.278404" style="fill: #008000; stroke: #008000"/>
     <use xlink:href="#mceed168bec" x="316.180487" y="161.109454" style="fill: #008000; stroke: #008000"/>
     <use xlink:href="#mceed168bec" x="320.753086" y="295.43542" style="fill: #008000; stroke: #008000"/>
     <use xlink:href="#mceed168bec" x="322.277286" y="295.077489" style="fill: #008000; stroke: #008000"/>
     <use xlink:href="#mceed168bec" x="329.898284" y="295.122699" style="fill: #008000; stroke: #008000"/>
     <use xlink:href="#mceed168bec" x="340.567682" y="295.044122" style="fill: #008000; stroke: #008000"/>
     <use xlink:href="#mceed168bec" x="345.140282" y="212.969875" style="fill: #008000; stroke: #008000"/>
     <use xlink:href="#mceed168bec" x="349.712881" y="294.866789" style="fill: #008000; stroke: #008000"/>
     <use xlink:href="#mceed168bec" x="355.80968" y="164.87173" style="fill: #008000; stroke: #008000"/>
     <use xlink:href="#mceed168bec" x="358.858079" y="219.433499" style="fill: #008000; stroke: #008000"/>
     <use xlink:href="#mceed168bec" x="361.906479" y="227.900844" style="fill: #008000; stroke: #008000"/>
     <use xlink:href="#mceed168bec" x="375.624277" y="295.118317" style="fill: #008000; stroke: #008000"/>
     <use xlink:href="#mceed168bec" x="386.293675" y="198.873016" style="fill: #008000; stroke: #008000"/>
     <use xlink:href="#mceed168bec" x="390.866274" y="295.173302" style="fill: #008000; stroke: #008000"/>
     <use xlink:href="#mceed168bec" x="398.487273" y="214.542836" style="fill: #008000; stroke: #008000"/>
    </g>
   </g>
   <g id="patch_3">
    <path d="M 57.6 307.584 
L 57.6 41.472 
" style="fill: none; stroke: #000000; stroke-width: 0.8; stroke-linejoin: miter; stroke-linecap: square"/>
   </g>
   <g id="patch_4">
    <path d="M 414.72 307.584 
L 414.72 41.472 
" style="fill: none; stroke: #000000; stroke-width: 0.8; stroke-linejoin: miter; stroke-linecap: square"/>
   </g>
   <g id="patch_5">
    <path d="M 57.6 307.584 
L 414.72 307.584 
" style="fill: none; stroke: #000000; stroke-width: 0.8; stroke-linejoin: miter; stroke-linecap: square"/>
   </g>
   <g id="patch_6">
    <path d="M 57.6 41.472 
L 414.72 41.472 
" style="fill: none; stroke: #000000; stroke-width: 0.8; stroke-linejoin: miter; stroke-linecap: square"/>
   </g>
  </g>
 </g>
 <defs>
  <clipPath id="pb8c053ea4b">
   <rect x="57.6" y="41.472" width="357.12" height="266.112"/>
  </clipPath>
 </defs>
</svg>
